<?xml version="1.0" encoding="UTF-8" standalone="no"?>
<!DOCTYPE svg PUBLIC "-//W3C//DTD SVG 1.1//EN" "http://www.w3.org/Graphics/SVG/1.1/DTD/svg11.dtd">
<svg width="100%" height="100%" viewBox="0 0 512 512" version="1.1" xmlns="http://www.w3.org/2000/svg" xmlns:xlink="http://www.w3.org/1999/xlink" xml:space="preserve" xmlns:serif="http://www.serif.com/" style="fill-rule:evenodd;clip-rule:evenodd;stroke-linejoin:round;stroke-miterlimit:2;">
    <g transform="matrix(1,0,0,1,-1148.26,-1321.13)">
        <g transform="matrix(1,0,0,1,1148.26,1321.13)">
            <g>
                <g transform="matrix(0.597658,1.43469e-16,1.43469e-16,-0.597658,27.2952,600.972)">
                    <path d="M297.608,148.867C356.689,148.867 404.655,196.833 404.655,255.914C404.655,314.995 311.16,492.145 297.608,492.145C284.055,492.145 190.561,314.995 190.561,255.914C190.561,196.833 238.527,148.867 297.608,148.867Z" style="fill:rgb(93,93,93);"/>
                </g>
                <g transform="matrix(-1.06873e-16,0.597658,0.597658,1.06873e-16,-88.9717,40.0278)">
                    <path d="M297.608,148.867C356.689,148.867 404.655,196.833 404.655,255.914C404.655,314.995 311.16,492.145 297.608,492.145C284.055,492.145 190.561,314.995 190.561,255.914C190.561,196.833 238.527,148.867 297.608,148.867Z" style="fill:rgb(226,226,226);"/>
                </g>
                <g transform="matrix(0.315228,0.315228,0.315228,-0.315228,-82.75,341.153)">
                    <path d="M297.608,148.867C356.689,148.867 404.655,196.833 404.655,255.914C404.655,314.995 311.16,451.425 297.608,451.425C284.055,451.425 190.561,314.995 190.561,255.914C190.561,196.833 238.527,148.867 297.608,148.867Z" style="fill:rgb(226,226,226);"/>
                </g>
            </g>
            <g transform="matrix(-1,-1.11022e-16,1.11022e-16,-1,512,512)">
                <g transform="matrix(0.597658,1.43469e-16,1.43469e-16,-0.597658,27.2952,600.972)">
                    <path d="M297.608,148.867C356.689,148.867 404.655,196.833 404.655,255.914C404.655,314.995 311.16,492.145 297.608,492.145C284.055,492.145 190.561,314.995 190.561,255.914C190.561,196.833 238.527,148.867 297.608,148.867Z" style="fill:rgb(170,170,170);"/>
                </g>
                <g transform="matrix(-1.06873e-16,0.597658,0.597658,1.06873e-16,-88.9717,40.0278)">
                    <path d="M297.608,148.867C356.689,148.867 404.655,196.833 404.655,255.914C404.655,314.995 311.16,492.145 297.608,492.145C284.055,492.145 190.561,314.995 190.561,255.914C190.561,196.833 238.527,148.867 297.608,148.867Z" style="fill:rgb(93,93,93);"/>
                </g>
                <g transform="matrix(0.315228,0.315228,0.315228,-0.315228,-82.75,341.153)">
                    <path d="M297.608,148.867C356.689,148.867 404.655,196.833 404.655,255.914C404.655,314.995 311.16,451.425 297.608,451.425C284.055,451.425 190.561,314.995 190.561,255.914C190.561,196.833 238.527,148.867 297.608,148.867Z" style="fill:rgb(170,170,170);"/>
                </g>
            </g>
            <g transform="matrix(-0.315228,0.315228,0.315228,0.315228,163.437,-103.052)">
                <path d="M297.608,148.867C356.689,148.867 404.655,196.833 404.655,255.914C404.655,314.995 311.16,451.425 297.608,451.425C284.055,451.425 190.561,314.995 190.561,255.914C190.561,196.833 238.527,148.867 297.608,148.867Z" style="fill:rgb(170,170,170);"/>
            </g>
            <g transform="matrix(0.315228,-0.315228,-0.315228,-0.315228,356.117,611.849)">
                <path d="M297.608,148.867C356.689,148.867 404.655,196.833 404.655,255.914C404.655,314.995 311.16,451.425 297.608,451.425C284.055,451.425 190.561,314.995 190.561,255.914C190.561,196.833 238.527,148.867 297.608,148.867Z" style="fill:rgb(93,93,93);"/>
            </g>
            <g transform="matrix(0.264502,8.91401e-18,8.91401e-18,-0.264502,177.282,323.69)">
                <circle cx="297.608" cy="255.914" r="107.047" style="fill:rgb(226,226,226);"/>
            </g>
        </g>
    </g>
</svg>
